<svg width="44" height="45" viewBox="0 0 44 45" fill="none" xmlns="http://www.w3.org/2000/svg">
<path d="M42.3422 14.5904C39.6747 7.00842 33.4044 3.43094 32.0649 2.7039C25.864 -0.654316 19.8015 -0.00806124 18.208 0.165043C17.2149 0.268905 16.4181 0.430469 16.014 0.511251C11.0832 1.54987 8.19635 3.90409 6.04852 5.76207C6.26793 6.01596 6.57971 6.41987 7.0647 7.0315C7.29565 7.32001 7.68826 7.81624 7.9885 8.53173C8.09242 8.77408 8.23099 9.16645 8.10397 9.57036C8.03469 9.80116 7.90766 9.89348 7.87302 9.91656C7.66517 10.0666 7.36493 10.0435 7.18017 9.91656C7.07625 9.84732 7.03006 9.755 6.94922 9.57036C6.79911 9.23569 6.71828 9.06259 6.6028 8.76254C6.48733 8.45095 6.29102 8.25477 5.90995 7.83932C5.4596 7.35463 5.12473 7.11228 4.89378 6.93918C4.88223 6.95072 4.88223 6.96226 4.87068 6.9738C3.51963 6.28138 1.81061 6.46603 0.644315 7.57389C1.52192 8.50865 2.41108 9.44341 3.28868 10.3782C2.44572 11.1052 2.19167 12.2362 2.09929 12.6862C2.01846 13.0786 1.96072 13.2979 1.98382 13.6094C2.04156 14.6135 2.65357 14.8327 2.79214 15.6867C2.95381 16.6792 2.20322 16.91 2.44572 17.6485C2.7344 18.5141 4.00462 18.918 4.75521 19.1488C5.13627 19.2757 5.44806 19.368 5.79448 19.3796C7.15708 19.4373 8.15016 18.1563 9.95156 16.1483C10.6444 15.3751 11.6952 14.2211 13.0578 12.8132C13.104 12.7901 13.1271 12.767 13.1271 12.7439C13.1502 12.6285 12.746 12.5593 12.4343 12.1669C11.9724 11.5784 11.8223 10.3897 12.5497 9.62806C13.1964 8.95872 14.2126 8.94718 14.8592 9.28185C16.0255 9.8704 16.014 11.5668 16.014 12.0515C16.014 12.5939 15.9101 12.917 15.6676 13.7826C15.5983 14.048 15.5521 14.2557 15.5174 14.3711C15.2288 15.4674 15.044 16.2752 14.8592 17.0138C14.6167 17.9947 14.5705 18.1102 13.5197 21.6992C13.1733 22.8763 13.0578 23.2571 13.0232 23.4302C10.8869 26.3845 8.73908 29.3273 6.6028 32.2816C6.21019 32.824 6.29102 33.5626 6.78756 34.0011C6.92613 34.128 7.0416 34.2434 7.15708 34.3242C7.34184 34.4512 7.89612 34.8551 8.57742 34.7166C8.71599 34.6935 8.99312 34.6127 9.27026 34.3704C11.268 32.0623 13.2772 29.7543 15.2749 27.4462C17.3073 25.1382 19.3396 22.8301 21.3835 20.5105C21.5221 20.5913 21.6491 20.6721 21.7877 20.7529C21.857 20.776 22.0417 20.8337 22.3189 20.8683C22.5498 20.9029 22.7577 20.9029 22.9309 20.8914C23.4621 20.5913 23.6353 19.9104 23.3351 19.3796L21.6029 16.3907C21.5452 16.2868 21.4759 16.1945 21.3835 16.1252C21.2796 15.5944 21.0718 15.0751 21.0371 14.1749C21.0025 13.2055 21.2103 12.3977 21.3835 11.8669C21.9147 10.482 22.4459 9.09721 22.9771 7.71237C23.1619 7.22768 23.6122 6.96226 24.0164 7.0892L24.4321 7.22768C24.8362 7.35463 25.0556 7.85086 24.9171 8.35863C24.5129 9.80116 24.1087 11.2437 23.693 12.6747C23.4852 13.1248 23.6007 13.6094 23.924 13.8287C24.2704 14.0595 24.7323 13.8864 24.9633 13.7133C25.1596 13.5633 25.2519 13.3786 25.4252 13.0209C25.5406 12.7901 25.6099 12.5824 25.6561 12.4439C27.2958 6.9738 28.6469 3.03857 29.0049 2.86546C29.2589 2.75006 29.5014 2.7616 29.5014 2.7616C29.7324 2.77314 29.8825 2.877 29.9171 2.90009C30.021 2.95779 30.1596 3.05011 30.2635 3.21167C30.2635 3.21167 30.3559 3.3617 30.379 3.55788C30.4714 4.29646 27.8617 11.7861 27.7231 12.3285C27.7115 12.3746 27.6769 12.5131 27.7231 12.6747C27.7231 12.6862 27.8386 13.0555 28.185 13.1363C28.4506 13.194 28.7277 13.0786 28.8778 12.8247C30.3675 7.9201 31.5684 4.4811 31.9033 4.31954C32.1573 4.20413 32.3998 4.21568 32.3998 4.21568C32.6308 4.22722 32.7809 4.33108 32.8155 4.35416C32.8155 4.35416 33.0349 4.49264 33.1619 4.78115C33.3236 5.15044 32.2959 8.62405 30.6446 13.4133C30.5984 13.6787 30.7139 13.9326 30.9448 14.0595C31.1989 14.198 31.5107 14.1288 31.707 13.898C33.058 9.53574 34.1088 6.54681 34.4206 6.39679C34.6747 6.28138 34.9172 6.29292 34.9172 6.29292C35.1481 6.30446 35.2982 6.40833 35.3329 6.43141C35.3329 6.43141 35.5523 6.56989 35.6793 6.8584C35.841 7.21614 34.8941 10.4243 33.3583 14.902C33.3583 15.1443 33.4968 15.3636 33.7047 15.4444C33.9472 15.5482 34.2474 15.4559 34.3975 15.2135C35.483 11.913 36.3952 9.5242 36.6031 9.39725C36.8802 9.23569 37.0996 9.29339 37.0996 9.29339C37.3306 9.30493 37.4807 9.40879 37.5153 9.43187C37.5153 9.43187 37.5731 9.46649 37.6424 9.53574C37.6424 9.53574 37.7809 9.67422 37.8618 9.85886C37.9541 10.055 37.1574 12.9863 35.8871 16.9446C35.3329 18.1217 34.6516 19.4142 33.8086 20.7529C32.5384 22.7609 31.2104 24.3996 29.9979 25.7152C27.8963 28.3002 25.7947 30.8968 23.693 33.4818C23.5776 33.3895 23.4621 33.2856 23.3466 33.1933C23.439 33.3087 23.5429 33.4356 23.6353 33.551C22.7923 32.824 22.111 32.2124 21.6722 31.82C21.4644 31.6353 21.2565 31.4392 21.0371 31.2545C20.7369 31.0006 20.4367 30.7467 20.1364 30.4929C19.5244 30.0197 18.9817 29.7081 18.6699 29.8581C18.3235 30.0312 17.977 30.3659 17.977 30.3659C17.8962 30.4467 17.8385 30.5159 17.8269 30.5275C17.3419 31.0352 17.3881 31.8546 17.9193 32.3162C20.1826 34.2896 22.4575 36.263 24.7208 38.2479C25.1365 38.6057 25.7023 38.6403 26.1411 38.3979C26.1526 38.3979 26.1642 38.3979 26.1873 38.3979C26.4644 38.3633 26.476 37.9132 27.1111 37.4747C27.3305 37.3247 28.1157 36.7708 29.0164 37.0708C29.6977 37.3016 30.1827 37.9248 30.2866 38.571C30.4137 39.3212 29.9979 39.9328 29.8247 40.1867C29.3744 40.856 28.1157 42.1139 23.5891 42.6101C21.9147 42.7948 19.8824 43.014 17.4228 42.6909C16.1872 42.5294 15.2403 42.2755 14.813 42.1485C7.29565 40.0482 2.63048 33.401 2.39953 32.974C2.30715 32.8009 2.12239 32.5701 1.76442 32.1085C1.71823 32.0508 1.69513 32.0162 1.64894 31.9931C1.38335 31.8315 0.921454 32.1085 0.378723 32.4547C0.159322 32.5932 0.0553947 32.6624 0.0322998 32.6855C-0.452693 33.3087 4.582 40.3944 11.2333 43.3025C18.4736 46.4761 29.2705 45.426 36.5223 38.2248C42.654 32.2008 45.2406 22.8186 42.3422 14.5904Z" fill="#EE4E4E"/>
</svg>
